<svg xmlns="http://www.w3.org/2000/svg" viewBox="0 0 32 32" id="Book"><g color="#000" font-family="sans-serif" font-weight="400" fill="#000000" class="color000000 svgShape"><path style="line-height:normal;text-indent:0;text-align:start;text-decoration-line:none;text-decoration-style:solid;text-decoration-color:#000;text-transform:none;block-progression:tb;isolation:auto;mix-blend-mode:normal" fill="#404040" d="M29.508 1356.361a.5.5 0 0 0-.5.5v24a.5.5 0 0 0 .5.5h14.5c1.653 0 3-1.346 3-3v-19c0-1.653-1.347-3-3-3h-14.5zm.5 1h14c1.116 0 2 .884 2 2v19c0 1.117-.884 2-2 2h-14v-23z" overflow="visible" transform="translate(-25 -1353.362)" class="color2b4255 svgShape"></path><path style="line-height:normal;text-indent:0;text-align:start;text-decoration-line:none;text-decoration-style:solid;text-decoration-color:#000;text-transform:none;block-progression:tb;isolation:auto;mix-blend-mode:normal" fill="#404040" fill-rule="evenodd" d="M28.508 1358.361a.5.5 0 1 0 0 1h2a.5.5 0 1 0 0-1h-2zm0 2a.5.5 0 1 0 0 1h2a.5.5 0 1 0 0-1h-2zm0 2a.5.5 0 1 0 0 1h2a.5.5 0 1 0 0-1h-2zm0 2a.5.5 0 1 0 0 1h2a.5.5 0 1 0 0-1h-2zm0 2a.5.5 0 1 0 0 1h2a.5.5 0 1 0 0-1h-2zm0 2a.5.5 0 1 0 0 1h2a.5.5 0 1 0 0-1h-2zm0 2a.5.5 0 1 0 0 1h2a.5.5 0 1 0 0-1h-2zm0 2a.5.5 0 1 0 0 1h2a.5.5 0 1 0 0-1h-2zm0 2a.5.5 0 1 0 0 1h2a.5.5 0 1 0 0-1h-2zm0 2a.5.5 0 1 0 0 1h2a.5.5 0 1 0 0-1h-2zm0 2a.5.5 0 1 0 0 1h2a.5.5 0 1 0 0-1h-2z" overflow="visible" transform="translate(-25 -1353.362)" class="color2b4255 svgShape"></path><path style="line-height:normal;text-indent:0;text-align:start;text-decoration-line:none;text-decoration-style:solid;text-decoration-color:#000;text-transform:none;block-progression:tb;isolation:auto;mix-blend-mode:normal" fill="#404040" d="M33.008 1360.861a.5.5 0 0 0-.5.5v4.5a.5.5 0 0 0 .5.5h10a.5.5 0 0 0 .5-.5v-4.5a.5.5 0 0 0-.5-.5h-10zm.5 1h9v3.5h-9v-3.5z" overflow="visible" transform="translate(-25 -1353.362)" class="color2b4255 svgShape"></path><path style="line-height:normal;text-indent:0;text-align:start;text-decoration-line:none;text-decoration-style:solid;text-decoration-color:#000;text-transform:none;block-progression:tb;isolation:auto;mix-blend-mode:normal" fill="#999999" d="M51.504 1356.938a.5.5 0 0 0-.451.277l-2 4a.5.5 0 0 0 .447.723h4a.5.5 0 0 0 .447-.723l-2-4a.5.5 0 0 0-.443-.277zm-.004 1.619 1.191 2.38H50.31l1.191-2.38z" overflow="visible" transform="translate(-25 -1353.362)" class="colorf05542 svgShape"></path><path style="line-height:normal;text-indent:0;text-align:start;text-decoration-line:none;text-decoration-style:solid;text-decoration-color:#000;text-transform:none;block-progression:tb;isolation:auto;mix-blend-mode:normal" fill="#999999" d="M49.5 1360.938a.5.5 0 0 0-.5.5v16.423a.5.5 0 0 0 .5.5h4a.5.5 0 0 0 .5-.5v-16.424a.5.5 0 0 0-.5-.5h-4zm.5 1h3v15.423h-3v-15.424z" overflow="visible" transform="translate(-25 -1353.362)" class="colorf05542 svgShape"></path><path style="line-height:normal;text-indent:0;text-align:start;text-decoration-line:none;text-decoration-style:solid;text-decoration-color:#000;text-transform:none;block-progression:tb;isolation:auto;mix-blend-mode:normal" fill="#999999" d="M49.5 1377.361a.5.5 0 0 0-.5.5v1.344c0 .59.236 1.104.625 1.416.389.312.88.426 1.375.426h1c1.071 0 2-.798 2-1.842v-1.344a.5.5 0 0 0-.5-.5h-4zm.5 1h3v.844c0 .444-.41.842-1 .842h-1c-.336 0-.594-.084-.748-.207-.154-.123-.252-.28-.252-.635v-.844z" overflow="visible" transform="translate(-25 -1353.362)" class="colorf05542 svgShape"></path><path style="line-height:normal;text-indent:0;text-align:start;text-decoration-line:none;text-decoration-style:solid;text-decoration-color:#000;text-transform:none;block-progression:tb;isolation:auto;mix-blend-mode:normal" fill="#999999" fill-rule="evenodd" d="M51 1361.379v16.982h1v-16.982h-1z" overflow="visible" transform="translate(-25 -1353.362)" class="colorf05542 svgShape"></path></g></svg>